# xmcd CD database file
#
# Track frame offsets:
#	150
#	26700
#	37950
#	75555
#	105480
#	130245
#	166245
#	192735
#	217445
#	250595
#
# Disc length: 3679 seconds
#
# Revision: 0
# Processed by: cddbd v1.5.2PL0 Copyright (c) Steve Scherf et al.
# Submitted via: CDex 1.51
#
DISCID=870e5d0a
DTITLE=The Retail Sectors - Subject Unknown
DYEAR=2007
DGENRE=Salsa
TTITLE0=The First Step to End the Life (Si Begg Remix)
TTITLE1=The Decadence (Maps and Diagrams Remix)
TTITLE2=The Lonely Shy Boys Fly to Sky Again and Again
TTITLE3=The Dread
TTITLE4=The Decadence (Yaporigami Remix)
TTITLE5=The Distress
TTITLE6=The Longing Song (Headphone Science Remix)
TTITLE7=The Story of a Girl Who is Socially Ostracized
TTITLE8=The Decadence
TTITLE9=The End of this Winter
EXTD=YEAR: 2007
EXTT0=
EXTT1=
EXTT2=
EXTT3=
EXTT4=
EXTT5=
EXTT6=
EXTT7=
EXTT8=
EXTT9=
PLAYORDER=
